<svg xmlns="http://www.w3.org/2000/svg" viewBox="0 0 64 64" role="img" aria-label="Saver tag favicon">
  <g transform="translate(32 32) rotate(135) translate(-29 -17) scale(2.8)">
    <path d="M0.103516 2C0.103516 0.895431 0.998946 0 2.10352 0L14.1035 0V12H2.10352C0.998946 12 0.103516 11.1046 0.103516 10L0.103516 2Z" fill="#DA0530"/>
    <path fill-rule="evenodd" clip-rule="evenodd" d="M14.6882 0L14.1035 0V6V12H14.6882C15.5648 12 16.3976 11.6165 16.9676 10.9504L20.0909 7.30029C20.7314 6.55174 20.7314 5.44826 20.0909 4.69971L16.9676 1.04957C16.3976 0.383465 15.5648 0 14.6882 0ZM14.1035 6C14.1035 5.33726 14.6408 4.8 15.3035 4.8C15.9663 4.8 16.5035 5.33726 16.5035 6C16.5035 6.66274 15.9663 7.2 15.3035 7.2C14.6408 7.2 14.1035 6.66274 14.1035 6Z" fill="#DA0530"/>
  </g>
</svg>
